<?xml version="1.0" encoding="UTF-8" standalone="no"?>
<!-- Created with PhysiCell (http://PhysiCell.MathCancer.org/) -->
<svg 
 xmlns:dc="http://purl.org/dc/elements/1.1/" 
 xmlns:cc="http://creativecommons.org/ns#" 
 xmlns:rdf="http://www.w3.org/1999/02/22-rdf-syntax-ns#" 
 xmlns:svg="http://www.w3.org/2000/svg" 
 xmlns="http://www.w3.org/2000/svg" 
 version="1.1" 
 width="800" 
 height="856" 
 id="svg2">
  <rect x="0" y="0" width="800" height="856" stroke-width="1.6" stroke="white" fill="white"/>
  <text x="10" y="24"
   font-family="Arial" font-size="20" fill="black" >
   Current time: 10 days, 0 hours, and 0.01 minutes, z = 0.00 &#956;m
  </text>
  <text x="10" y="46"
   font-family="Arial" font-size="19" fill="black" >
   73 agents
  </text>
 <g id="tissue" 
    transform="translate(0,856) scale(1,-1)">
  <g id="ECM">
  </g>
  <g id="cells">
   <g id="cell3333">
  <circle cx="97.58" cy="700.898" r="4.85042" stroke-width="0.5" stroke="black" fill="red"/>
  <circle cx="97.58" cy="700.898" r="2.25137" stroke-width="0.5" stroke="red" fill="red"/>
   </g>
   <g id="cell3457">
  <circle cx="203.855" cy="737.768" r="4.85042" stroke-width="0.5" stroke="black" fill="red"/>
  <circle cx="203.855" cy="737.768" r="2.25137" stroke-width="0.5" stroke="red" fill="red"/>
   </g>
   <g id="cell2800">
  <circle cx="172.152" cy="739.537" r="10.5" stroke-width="0.5" stroke="black" fill="fuchsia"/>
  <circle cx="172.152" cy="739.537" r="4.87399" stroke-width="0.5" stroke="fuchsia" fill="fuchsia"/>
   </g>
   <g id="cell3640">
  <circle cx="9.0306" cy="783.449" r="7.0004" stroke-width="0.5" stroke="black" fill="cyan"/>
  <circle cx="9.0306" cy="783.449" r="3.2493" stroke-width="0.5" stroke="cyan" fill="cyan"/>
   </g>
   <g id="cell3646">
  <circle cx="25.6966" cy="788.661" r="7.05086" stroke-width="0.5" stroke="black" fill="cyan"/>
  <circle cx="25.6966" cy="788.661" r="3.25027" stroke-width="0.5" stroke="cyan" fill="cyan"/>
   </g>
   <g id="cell3553">
  <circle cx="143.014" cy="697.651" r="4.85042" stroke-width="0.5" stroke="black" fill="red"/>
  <circle cx="143.014" cy="697.651" r="2.25137" stroke-width="0.5" stroke="red" fill="red"/>
   </g>
   <g id="cell3668">
  <circle cx="16.1779" cy="787.685" r="7.0004" stroke-width="0.5" stroke="black" fill="cyan"/>
  <circle cx="16.1779" cy="787.685" r="3.2493" stroke-width="0.5" stroke="cyan" fill="cyan"/>
   </g>
   <g id="cell3383">
  <circle cx="149.347" cy="572.006" r="4.85042" stroke-width="0.5" stroke="black" fill="red"/>
  <circle cx="149.347" cy="572.006" r="2.25137" stroke-width="0.5" stroke="red" fill="red"/>
   </g>
   <g id="cell3471">
  <circle cx="62.7092" cy="628.333" r="4.85042" stroke-width="0.5" stroke="black" fill="red"/>
  <circle cx="62.7092" cy="628.333" r="2.25137" stroke-width="0.5" stroke="red" fill="red"/>
   </g>
   <g id="cell3559">
  <circle cx="37.2291" cy="489.542" r="4.85042" stroke-width="0.5" stroke="black" fill="red"/>
  <circle cx="37.2291" cy="489.542" r="2.25137" stroke-width="0.5" stroke="red" fill="red"/>
   </g>
   <g id="cell2798">
  <circle cx="205.198" cy="623.188" r="10.5" stroke-width="0.5" stroke="black" fill="fuchsia"/>
  <circle cx="205.198" cy="623.188" r="4.87399" stroke-width="0.5" stroke="fuchsia" fill="fuchsia"/>
   </g>
   <g id="cell3664">
  <circle cx="166.055" cy="790.119" r="7.0004" stroke-width="0.5" stroke="black" fill="cyan"/>
  <circle cx="166.055" cy="790.119" r="3.2493" stroke-width="0.5" stroke="cyan" fill="cyan"/>
   </g>
   <g id="cell3638">
  <circle cx="276.411" cy="697.543" r="2.08741" stroke-width="0.5" stroke="black" fill="rosybrown"/>
  <circle cx="276.411" cy="697.543" r="1.52297" stroke-width="0.5" stroke="rosybrown" fill="rosybrown"/>
   </g>
   <g id="cell2821">
  <circle cx="542.182" cy="600.039" r="10.5" stroke-width="0.5" stroke="black" fill="fuchsia"/>
  <circle cx="542.182" cy="600.039" r="4.87399" stroke-width="0.5" stroke="fuchsia" fill="fuchsia"/>
   </g>
   <g id="cell2802">
  <circle cx="418.655" cy="205.626" r="10.5" stroke-width="0.5" stroke="black" fill="fuchsia"/>
  <circle cx="418.655" cy="205.626" r="4.87399" stroke-width="0.5" stroke="fuchsia" fill="fuchsia"/>
   </g>
   <g id="cell3563">
  <circle cx="107.824" cy="757.713" r="4.85042" stroke-width="0.5" stroke="black" fill="red"/>
  <circle cx="107.824" cy="757.713" r="2.25137" stroke-width="0.5" stroke="red" fill="red"/>
   </g>
   <g id="cell3057">
  <circle cx="222.725" cy="769.311" r="4.85042" stroke-width="0.5" stroke="black" fill="red"/>
  <circle cx="222.725" cy="769.311" r="2.25137" stroke-width="0.5" stroke="red" fill="red"/>
   </g>
   <g id="cell3672">
  <circle cx="226.437" cy="781.614" r="7.0004" stroke-width="0.5" stroke="black" fill="cyan"/>
  <circle cx="226.437" cy="781.614" r="3.2493" stroke-width="0.5" stroke="cyan" fill="cyan"/>
   </g>
   <g id="cell3571">
  <circle cx="147.799" cy="652.563" r="4.85042" stroke-width="0.5" stroke="black" fill="red"/>
  <circle cx="147.799" cy="652.563" r="2.25137" stroke-width="0.5" stroke="red" fill="red"/>
   </g>
   <g id="cell2818">
  <circle cx="660.74" cy="498.255" r="10.5" stroke-width="0.5" stroke="black" fill="fuchsia"/>
  <circle cx="660.74" cy="498.255" r="4.87399" stroke-width="0.5" stroke="fuchsia" fill="fuchsia"/>
   </g>
   <g id="cell2797">
  <circle cx="297.922" cy="165.496" r="10.5" stroke-width="0.5" stroke="black" fill="fuchsia"/>
  <circle cx="297.922" cy="165.496" r="4.87399" stroke-width="0.5" stroke="fuchsia" fill="fuchsia"/>
   </g>
   <g id="cell3541">
  <circle cx="50.114" cy="723.139" r="4.85042" stroke-width="0.5" stroke="black" fill="red"/>
  <circle cx="50.114" cy="723.139" r="2.25137" stroke-width="0.5" stroke="red" fill="red"/>
   </g>
   <g id="cell3654">
  <circle cx="14.9773" cy="695.234" r="7.0004" stroke-width="0.5" stroke="black" fill="cyan"/>
  <circle cx="14.9773" cy="695.234" r="3.2493" stroke-width="0.5" stroke="cyan" fill="cyan"/>
   </g>
   <g id="cell2816">
  <circle cx="105.57" cy="363.463" r="10.5" stroke-width="0.5" stroke="black" fill="fuchsia"/>
  <circle cx="105.57" cy="363.463" r="4.87399" stroke-width="0.5" stroke="fuchsia" fill="fuchsia"/>
   </g>
   <g id="cell2814">
  <circle cx="194.735" cy="490.892" r="10.5" stroke-width="0.5" stroke="black" fill="fuchsia"/>
  <circle cx="194.735" cy="490.892" r="4.87399" stroke-width="0.5" stroke="fuchsia" fill="fuchsia"/>
   </g>
   <g id="cell3549">
  <circle cx="162.588" cy="756.072" r="4.85042" stroke-width="0.5" stroke="black" fill="red"/>
  <circle cx="162.588" cy="756.072" r="2.25137" stroke-width="0.5" stroke="red" fill="red"/>
   </g>
   <g id="cell3429">
  <circle cx="77.7847" cy="764.934" r="4.85042" stroke-width="0.5" stroke="black" fill="red"/>
  <circle cx="77.7847" cy="764.934" r="2.25137" stroke-width="0.5" stroke="red" fill="red"/>
   </g>
   <g id="cell3661">
  <circle cx="18.4812" cy="718.633" r="7.0004" stroke-width="0.5" stroke="black" fill="cyan"/>
  <circle cx="18.4812" cy="718.633" r="3.2493" stroke-width="0.5" stroke="cyan" fill="cyan"/>
   </g>
   <g id="cell2833">
  <circle cx="661.578" cy="302.836" r="10.5" stroke-width="0.5" stroke="black" fill="fuchsia"/>
  <circle cx="661.578" cy="302.836" r="4.87399" stroke-width="0.5" stroke="fuchsia" fill="fuchsia"/>
   </g>
   <g id="cell3339">
  <circle cx="100.175" cy="586.63" r="4.85042" stroke-width="0.5" stroke="black" fill="red"/>
  <circle cx="100.175" cy="586.63" r="2.25137" stroke-width="0.5" stroke="red" fill="red"/>
   </g>
   <g id="cell2809">
  <circle cx="459.06" cy="353.076" r="10.5" stroke-width="0.5" stroke="black" fill="fuchsia"/>
  <circle cx="459.06" cy="353.076" r="4.87399" stroke-width="0.5" stroke="fuchsia" fill="fuchsia"/>
   </g>
   <g id="cell3625">
  <circle cx="18.4781" cy="790.176" r="12.0562" stroke-width="0.5" stroke="black" fill="cyan"/>
  <circle cx="18.4781" cy="790.176" r="3.2427" stroke-width="0.5" stroke="cyan" fill="cyan"/>
   </g>
   <g id="cell3657">
  <circle cx="13.0043" cy="769.284" r="7.0004" stroke-width="0.5" stroke="black" fill="cyan"/>
  <circle cx="13.0043" cy="769.284" r="3.2493" stroke-width="0.5" stroke="cyan" fill="cyan"/>
   </g>
   <g id="cell2796">
  <circle cx="626.559" cy="725.019" r="10.5" stroke-width="0.5" stroke="black" fill="fuchsia"/>
  <circle cx="626.559" cy="725.019" r="4.87399" stroke-width="0.5" stroke="fuchsia" fill="fuchsia"/>
   </g>
   <g id="cell2805">
  <circle cx="185.704" cy="242.189" r="10.5" stroke-width="0.5" stroke="black" fill="fuchsia"/>
  <circle cx="185.704" cy="242.189" r="4.87399" stroke-width="0.5" stroke="fuchsia" fill="fuchsia"/>
   </g>
   <g id="cell2817">
  <circle cx="492.716" cy="510.206" r="10.5" stroke-width="0.5" stroke="black" fill="fuchsia"/>
  <circle cx="492.716" cy="510.206" r="4.87399" stroke-width="0.5" stroke="fuchsia" fill="fuchsia"/>
   </g>
   <g id="cell2820">
  <circle cx="298.018" cy="640.427" r="10.5" stroke-width="0.5" stroke="black" fill="fuchsia"/>
  <circle cx="298.018" cy="640.427" r="4.87399" stroke-width="0.5" stroke="fuchsia" fill="fuchsia"/>
   </g>
   <g id="cell3594">
  <circle cx="46.997" cy="787.022" r="7.00045" stroke-width="0.5" stroke="black" fill="cyan"/>
  <circle cx="46.997" cy="787.022" r="3.2493" stroke-width="0.5" stroke="cyan" fill="cyan"/>
   </g>
   <g id="cell2832">
  <circle cx="366.317" cy="685.1" r="10.5" stroke-width="0.5" stroke="black" fill="fuchsia"/>
  <circle cx="366.317" cy="685.1" r="4.87399" stroke-width="0.5" stroke="fuchsia" fill="fuchsia"/>
   </g>
   <g id="cell3644">
  <circle cx="251.823" cy="780.747" r="7.0004" stroke-width="0.5" stroke="black" fill="rosybrown"/>
  <circle cx="251.823" cy="780.747" r="3.2493" stroke-width="0.5" stroke="rosybrown" fill="rosybrown"/>
   </g>
   <g id="cell3373">
  <circle cx="81.5547" cy="638.411" r="2.78289" stroke-width="0.5" stroke="black" fill="rosybrown"/>
  <circle cx="81.5547" cy="638.411" r="1.47337" stroke-width="0.5" stroke="rosybrown" fill="rosybrown"/>
   </g>
   <g id="cell3481">
  <circle cx="77.119" cy="504.807" r="4.85042" stroke-width="0.5" stroke="black" fill="red"/>
  <circle cx="77.119" cy="504.807" r="2.25137" stroke-width="0.5" stroke="red" fill="red"/>
   </g>
   <g id="cell2803">
  <circle cx="328.55" cy="377.622" r="10.5" stroke-width="0.5" stroke="black" fill="fuchsia"/>
  <circle cx="328.55" cy="377.622" r="4.87399" stroke-width="0.5" stroke="fuchsia" fill="fuchsia"/>
   </g>
   <g id="cell2806">
  <circle cx="206.864" cy="364.29" r="10.5" stroke-width="0.5" stroke="black" fill="fuchsia"/>
  <circle cx="206.864" cy="364.29" r="4.87399" stroke-width="0.5" stroke="fuchsia" fill="fuchsia"/>
   </g>
   <g id="cell3575">
  <circle cx="120.617" cy="701.283" r="4.85042" stroke-width="0.5" stroke="black" fill="red"/>
  <circle cx="120.617" cy="701.283" r="2.25137" stroke-width="0.5" stroke="red" fill="red"/>
   </g>
   <g id="cell3306">
  <circle cx="119.106" cy="599.454" r="4.85042" stroke-width="0.5" stroke="black" fill="red"/>
  <circle cx="119.106" cy="599.454" r="2.25137" stroke-width="0.5" stroke="red" fill="red"/>
   </g>
   <g id="cell2794">
  <circle cx="145.937" cy="167.129" r="10.5" stroke-width="0.5" stroke="black" fill="fuchsia"/>
  <circle cx="145.937" cy="167.129" r="4.87399" stroke-width="0.5" stroke="fuchsia" fill="fuchsia"/>
   </g>
   <g id="cell3417">
  <circle cx="21.5508" cy="481.88" r="3.17258" stroke-width="0.5" stroke="black" fill="rosybrown"/>
  <circle cx="21.5508" cy="481.88" r="1.60194" stroke-width="0.5" stroke="rosybrown" fill="rosybrown"/>
   </g>
   <g id="cell2812">
  <circle cx="80.6515" cy="550.217" r="10.5" stroke-width="0.5" stroke="black" fill="fuchsia"/>
  <circle cx="80.6515" cy="550.217" r="4.87399" stroke-width="0.5" stroke="fuchsia" fill="fuchsia"/>
   </g>
   <g id="cell3581">
  <circle cx="53.9422" cy="761.376" r="4.85042" stroke-width="0.5" stroke="black" fill="red"/>
  <circle cx="53.9422" cy="761.376" r="2.25137" stroke-width="0.5" stroke="red" fill="red"/>
   </g>
   <g id="cell2799">
  <circle cx="437.251" cy="738.112" r="10.5" stroke-width="0.5" stroke="black" fill="fuchsia"/>
  <circle cx="437.251" cy="738.112" r="4.87399" stroke-width="0.5" stroke="fuchsia" fill="fuchsia"/>
   </g>
   <g id="cell2795">
  <circle cx="568.809" cy="81.5486" r="10.5" stroke-width="0.5" stroke="black" fill="fuchsia"/>
  <circle cx="568.809" cy="81.5486" r="4.87399" stroke-width="0.5" stroke="fuchsia" fill="fuchsia"/>
   </g>
   <g id="cell3427">
  <circle cx="50.6039" cy="587.459" r="4.85042" stroke-width="0.5" stroke="black" fill="red"/>
  <circle cx="50.6039" cy="587.459" r="2.25137" stroke-width="0.5" stroke="red" fill="red"/>
   </g>
   <g id="cell3304">
  <circle cx="196.923" cy="718.879" r="4.85042" stroke-width="0.5" stroke="black" fill="red"/>
  <circle cx="196.923" cy="718.879" r="2.25137" stroke-width="0.5" stroke="red" fill="red"/>
   </g>
   <g id="cell2804">
  <circle cx="143.495" cy="682.013" r="12.1757" stroke-width="0.5" stroke="black" fill="fuchsia"/>
  <circle cx="143.495" cy="682.013" r="4.89782" stroke-width="0.5" stroke="fuchsia" fill="fuchsia"/>
   </g>
   <g id="cell2838">
  <circle cx="330.476" cy="523.704" r="10.5" stroke-width="0.5" stroke="black" fill="fuchsia"/>
  <circle cx="330.476" cy="523.704" r="4.87399" stroke-width="0.5" stroke="fuchsia" fill="fuchsia"/>
   </g>
   <g id="cell3671">
  <circle cx="45.4269" cy="770.697" r="7.0004" stroke-width="0.5" stroke="black" fill="cyan"/>
  <circle cx="45.4269" cy="770.697" r="3.2493" stroke-width="0.5" stroke="cyan" fill="cyan"/>
   </g>
   <g id="cell3463">
  <circle cx="182.238" cy="762.682" r="4.85042" stroke-width="0.5" stroke="black" fill="red"/>
  <circle cx="182.238" cy="762.682" r="2.25137" stroke-width="0.5" stroke="red" fill="red"/>
   </g>
   <g id="cell3665">
  <circle cx="264.308" cy="785.876" r="7.0004" stroke-width="0.5" stroke="black" fill="cyan"/>
  <circle cx="264.308" cy="785.876" r="3.2493" stroke-width="0.5" stroke="cyan" fill="cyan"/>
   </g>
   <g id="cell3618">
  <circle cx="785.253" cy="782.665" r="0.821039" stroke-width="0.5" stroke="black" fill="rosybrown"/>
  <circle cx="785.253" cy="782.665" r="0.810612" stroke-width="0.5" stroke="rosybrown" fill="rosybrown"/>
   </g>
   <g id="cell3658">
  <circle cx="44.4532" cy="750.916" r="7.0004" stroke-width="0.5" stroke="black" fill="cyan"/>
  <circle cx="44.4532" cy="750.916" r="3.2493" stroke-width="0.5" stroke="cyan" fill="cyan"/>
   </g>
   <g id="cell3636">
  <circle cx="22.064" cy="702.212" r="8.45287" stroke-width="0.5" stroke="black" fill="cyan"/>
  <circle cx="22.064" cy="702.212" r="3.22325" stroke-width="0.5" stroke="cyan" fill="cyan"/>
   </g>
   <g id="cell3673">
  <circle cx="695.71" cy="500.311" r="7.0004" stroke-width="0.5" stroke="black" fill="cyan"/>
  <circle cx="695.71" cy="500.311" r="3.2493" stroke-width="0.5" stroke="cyan" fill="cyan"/>
   </g>
   <g id="cell3656">
  <circle cx="14.5096" cy="756.207" r="7.0004" stroke-width="0.5" stroke="black" fill="cyan"/>
  <circle cx="14.5096" cy="756.207" r="3.2493" stroke-width="0.5" stroke="cyan" fill="cyan"/>
   </g>
   <g id="cell3626">
  <circle cx="10.1328" cy="789.908" r="7.18054" stroke-width="0.5" stroke="black" fill="cyan"/>
  <circle cx="10.1328" cy="789.908" r="3.26667" stroke-width="0.5" stroke="cyan" fill="cyan"/>
   </g>
   <g id="cell3670">
  <circle cx="112.657" cy="783.632" r="10.799" stroke-width="0.5" stroke="black" fill="rosybrown"/>
  <circle cx="112.657" cy="783.632" r="2.86463" stroke-width="0.5" stroke="rosybrown" fill="rosybrown"/>
   </g>
   <g id="cell3666">
  <circle cx="47.7723" cy="780.221" r="7.0004" stroke-width="0.5" stroke="black" fill="cyan"/>
  <circle cx="47.7723" cy="780.221" r="3.2493" stroke-width="0.5" stroke="cyan" fill="cyan"/>
   </g>
   <g id="cell3632">
  <circle cx="58.202" cy="789.98" r="7.0004" stroke-width="0.5" stroke="black" fill="cyan"/>
  <circle cx="58.202" cy="789.98" r="3.2493" stroke-width="0.5" stroke="cyan" fill="cyan"/>
   </g>
   <g id="cell3663">
  <circle cx="167.923" cy="780.509" r="7.0004" stroke-width="0.5" stroke="black" fill="cyan"/>
  <circle cx="167.923" cy="780.509" r="3.2493" stroke-width="0.5" stroke="cyan" fill="cyan"/>
   </g>
   <g id="cell3667">
  <circle cx="14.8536" cy="779.486" r="7.0004" stroke-width="0.5" stroke="black" fill="cyan"/>
  <circle cx="14.8536" cy="779.486" r="3.2493" stroke-width="0.5" stroke="cyan" fill="cyan"/>
   </g>
   <g id="cell3635">
  <circle cx="26.3194" cy="775.164" r="7.0004" stroke-width="0.5" stroke="black" fill="cyan"/>
  <circle cx="26.3194" cy="775.164" r="3.2493" stroke-width="0.5" stroke="cyan" fill="cyan"/>
   </g>
   <g id="cell3669">
  <circle cx="13.8109" cy="772.89" r="7.0004" stroke-width="0.5" stroke="black" fill="cyan"/>
  <circle cx="13.8109" cy="772.89" r="3.2493" stroke-width="0.5" stroke="cyan" fill="cyan"/>
   </g>
   <g id="cell3674">
  <circle cx="350" cy="370" r="7.0004" stroke-width="0.5" stroke="black" fill="cyan"/>
  <circle cx="350" cy="370" r="3.2493" stroke-width="0.5" stroke="cyan" fill="cyan"/>
   </g>
  </g>
 </g>
  <rect x="580" y="828" width="200" height="8" stroke-width="1.6" stroke="rgb(255,255,255)" fill="rgb(0,0,0)"/>
  <text x="585" y="823"
   font-family="Arial" font-size="20" fill="black" >
   200 &#956;m
  </text>
  <text x="20" y="836"
   font-family="Arial" font-size="15" fill="black" >
   0 days, 0 hours, 36 minutes, and 51.7843 seconds
  </text>
  <rect x="0" y="56" width="800" height="800" stroke-width="1.6" stroke="rgb(0,0,0)" fill="none"/>
</svg>
